<?xml version="1.0" encoding="utf-8"?>
<!-- Generator: Adobe Illustrator 27.2.0, SVG Export Plug-In . SVG Version: 6.00 Build 0)  -->
<svg version="1.1" id="Calque_1" xmlns="http://www.w3.org/2000/svg" xmlns:xlink="http://www.w3.org/1999/xlink" x="0px" y="0px"
	 viewBox="0 0 396.96 93.12" style="enable-background:new 0 0 396.96 93.12;" xml:space="preserve">
<style type="text/css">
	.st0{enable-background:new    ;}
	.st1{fill:#01427C;}
	.st2{fill:#F59D0F;}
</style>
<g id="Calque_0_xA0_Image_00000049214395433710764720000017926026723908027814_">
</g>
<g id="SAREASOFT">
	<g class="st0">
		<path class="st1" d="M21.63,46.31l4.29-0.38c0.2,1.72,0.68,3.13,1.42,4.23s1.89,1.99,3.46,2.67s3.32,1.02,5.27,1.02
			c1.73,0,3.27-0.26,4.59-0.77s2.32-1.22,2.96-2.12s0.97-1.88,0.97-2.94c0-1.08-0.31-2.02-0.94-2.82s-1.66-1.48-3.09-2.03
			c-0.92-0.36-2.96-0.92-6.12-1.68s-5.37-1.47-6.63-2.14c-1.64-0.86-2.86-1.93-3.67-3.2s-1.21-2.7-1.21-4.28
			c0-1.73,0.49-3.36,1.48-4.86s2.42-2.65,4.31-3.43s3.99-1.17,6.3-1.17c2.55,0,4.79,0.41,6.74,1.23s3.44,2.03,4.49,3.62
			s1.61,3.4,1.69,5.41L43.59,33c-0.23-2.17-1.03-3.81-2.38-4.92s-3.35-1.66-5.99-1.66c-2.75,0-4.75,0.5-6.01,1.51
			s-1.89,2.22-1.89,3.64c0,1.23,0.45,2.25,1.34,3.05c0.88,0.8,3.16,1.61,6.86,2.45s6.23,1.57,7.61,2.19c2,0.92,3.48,2.09,4.43,3.5
			s1.43,3.04,1.43,4.89c0,1.83-0.52,3.55-1.57,5.17s-2.55,2.88-4.51,3.77s-4.17,1.35-6.62,1.35c-3.11,0-5.71-0.45-7.82-1.36
			s-3.75-2.27-4.95-4.09S21.69,48.61,21.63,46.31z"/>
		<path class="st1" d="M51.42,57.35l13.2-34.36h4.9l14.06,34.36h-5.18l-4.01-10.41H60.02l-3.77,10.41H51.42z M61.33,43.24h11.65
			l-3.59-9.52c-1.09-2.89-1.91-5.27-2.44-7.12c-0.44,2.2-1.05,4.39-1.85,6.56L61.33,43.24z"/>
		<path class="st1" d="M87.28,57.35V22.99h15.23c3.06,0,5.39,0.31,6.98,0.93s2.87,1.71,3.82,3.27s1.43,3.29,1.43,5.18
			c0,2.44-0.79,4.49-2.37,6.16s-4.02,2.73-7.31,3.19c1.2,0.58,2.12,1.15,2.74,1.71c1.33,1.22,2.59,2.74,3.77,4.57l5.98,9.35h-5.72
			l-4.55-7.15c-1.33-2.06-2.42-3.64-3.28-4.73s-1.63-1.86-2.31-2.3s-1.37-0.74-2.07-0.91c-0.52-0.11-1.36-0.16-2.53-0.16h-5.27
			v15.26H87.28z M91.82,38.16h9.77c2.08,0,3.7-0.21,4.88-0.64s2.06-1.12,2.67-2.06s0.91-1.97,0.91-3.08c0-1.62-0.59-2.96-1.77-4.01
			s-3.04-1.57-5.59-1.57H91.82V38.16z"/>
		<path class="st1" d="M121.96,57.35V22.99h24.84v4.05h-20.3v10.52h19.01v4.03h-19.01v11.7h21.09v4.05H121.96z"/>
		<path class="st1" d="M150.11,57.35l13.2-34.36h4.9l14.06,34.36h-5.18l-4.01-10.41h-14.37l-3.77,10.41H150.11z M160.03,43.24h11.65
			l-3.59-9.52c-1.09-2.89-1.91-5.27-2.44-7.12c-0.44,2.2-1.05,4.39-1.85,6.56L160.03,43.24z"/>
		<path class="st1" d="M184.35,46.31l4.29-0.38c0.2,1.72,0.68,3.13,1.42,4.23s1.89,1.99,3.46,2.67s3.32,1.02,5.27,1.02
			c1.73,0,3.27-0.26,4.59-0.77s2.32-1.22,2.96-2.12s0.97-1.88,0.97-2.94c0-1.08-0.31-2.02-0.94-2.82s-1.66-1.48-3.09-2.03
			c-0.92-0.36-2.96-0.92-6.12-1.68c-3.16-0.76-5.37-1.47-6.63-2.14c-1.64-0.86-2.86-1.93-3.67-3.2s-1.21-2.7-1.21-4.28
			c0-1.73,0.49-3.36,1.48-4.86s2.42-2.65,4.31-3.43s3.99-1.17,6.3-1.17c2.55,0,4.79,0.41,6.74,1.23s3.44,2.03,4.49,3.62
			s1.61,3.4,1.69,5.41L206.32,33c-0.23-2.17-1.03-3.81-2.38-4.92s-3.35-1.66-5.99-1.66c-2.75,0-4.75,0.5-6.01,1.51
			s-1.89,2.22-1.89,3.64c0,1.23,0.45,2.25,1.34,3.05c0.88,0.8,3.16,1.61,6.86,2.45c3.7,0.84,6.23,1.57,7.61,2.19
			c2,0.92,3.48,2.09,4.43,3.5s1.43,3.04,1.43,4.89c0,1.83-0.52,3.55-1.57,5.17s-2.55,2.88-4.51,3.77s-4.17,1.35-6.62,1.35
			c-3.11,0-5.72-0.45-7.82-1.36s-3.75-2.27-4.95-4.09S184.42,48.61,184.35,46.31z"/>
		<path class="st1" d="M216.54,40.62c0-5.7,1.53-10.17,4.59-13.39s7.02-4.84,11.86-4.84c3.17,0,6.03,0.76,8.58,2.27
			s4.49,3.63,5.82,6.34s2,5.79,2,9.22c0,3.48-0.7,6.6-2.11,9.35c-1.41,2.75-3.4,4.83-5.98,6.25s-5.36,2.12-8.34,2.12
			c-3.23,0-6.12-0.78-8.67-2.34s-4.48-3.7-5.79-6.4C217.19,46.49,216.54,43.63,216.54,40.62z M221.22,40.69
			c0,4.14,1.11,7.4,3.34,9.79s5.02,3.57,8.38,3.57c3.42,0,6.24-1.2,8.45-3.61s3.32-5.82,3.32-10.24c0-2.8-0.47-5.24-1.42-7.32
			s-2.33-3.7-4.15-4.85s-3.86-1.72-6.13-1.72c-3.22,0-5.99,1.11-8.31,3.32S221.22,35.51,221.22,40.69z"/>
		<path class="st1" d="M255.49,57.35V22.99h23.18v4.05h-18.63v10.64h16.12v4.05h-16.12v15.61H255.49z"/>
		<path class="st1" d="M293.32,57.35V27.05H282v-4.05h27.23v4.05h-11.37v30.31H293.32z"/>
	</g>
	<g class="st0">
		<path class="st1" d="M237.37,78.16c0,0.9-0.33,1.6-0.99,2.1c-0.66,0.5-1.61,0.76-2.86,0.76c-0.53,0-1.02-0.05-1.47-0.14
			c-0.45-0.09-0.83-0.21-1.14-0.36c-0.32-0.15-0.56-0.31-0.74-0.5c-0.17-0.19-0.26-0.38-0.26-0.58c0-0.17,0.05-0.33,0.14-0.48
			c0.09-0.15,0.23-0.29,0.41-0.4c0.38,0.28,0.82,0.53,1.32,0.75s1.08,0.33,1.72,0.33c1.46,0,2.18-0.49,2.18-1.47
			c0-0.8-0.48-1.32-1.45-1.55l-1.74-0.46c-0.85-0.22-1.48-0.55-1.87-0.98c-0.39-0.43-0.59-0.98-0.59-1.65
			c0-0.36,0.07-0.71,0.22-1.05c0.15-0.34,0.38-0.63,0.68-0.88s0.69-0.45,1.14-0.6c0.46-0.15,0.99-0.22,1.61-0.22
			c0.98,0,1.77,0.14,2.37,0.43c0.6,0.29,0.9,0.62,0.9,1c0,0.18-0.05,0.34-0.14,0.48c-0.09,0.14-0.21,0.25-0.37,0.32
			c-0.25-0.17-0.61-0.35-1.07-0.55s-1.01-0.29-1.64-0.29s-1.13,0.12-1.5,0.36c-0.37,0.24-0.56,0.57-0.56,1.01
			c0,0.32,0.11,0.59,0.32,0.82c0.21,0.22,0.56,0.39,1.05,0.5l1.45,0.36c0.95,0.24,1.67,0.59,2.14,1.06S237.37,77.36,237.37,78.16z"
			/>
		<path class="st1" d="M249.02,75.89c0,0.78-0.11,1.49-0.34,2.12c-0.22,0.63-0.54,1.17-0.96,1.62c-0.41,0.45-0.91,0.79-1.5,1.03
			s-1.25,0.36-1.97,0.36c-0.73,0-1.39-0.12-1.97-0.36s-1.09-0.58-1.51-1.03c-0.42-0.45-0.74-0.99-0.97-1.62
			c-0.22-0.63-0.34-1.34-0.34-2.12s0.12-1.49,0.35-2.12c0.23-0.63,0.56-1.17,0.98-1.62s0.92-0.79,1.51-1.03
			c0.59-0.24,1.24-0.36,1.95-0.36s1.37,0.12,1.95,0.36c0.59,0.24,1.09,0.58,1.5,1.03c0.41,0.45,0.73,0.99,0.97,1.62
			C248.9,74.4,249.02,75.11,249.02,75.89z M244.25,72.15c-0.95,0-1.7,0.33-2.25,0.99c-0.55,0.66-0.82,1.57-0.82,2.75
			c0,1.19,0.27,2.11,0.81,2.76c0.54,0.65,1.29,0.98,2.26,0.98c0.97,0,1.71-0.33,2.25-0.99s0.8-1.58,0.8-2.75
			c0-1.18-0.27-2.09-0.81-2.75C245.95,72.48,245.21,72.15,244.25,72.15z"/>
		<path class="st1" d="M253.33,71.59h4.16c0.04,0.07,0.08,0.16,0.13,0.27s0.06,0.25,0.06,0.4c0,0.46-0.22,0.69-0.65,0.69h-3.68v7.75
			c-0.07,0.03-0.17,0.06-0.31,0.09c-0.14,0.03-0.29,0.05-0.46,0.05c-0.6,0-0.9-0.25-0.9-0.76v-9.91c0-1.23,0.33-2.12,1-2.68
			s1.59-0.83,2.78-0.83c0.8,0,1.42,0.11,1.88,0.32s0.68,0.47,0.68,0.78c0,0.31-0.12,0.57-0.36,0.78c-0.25-0.14-0.57-0.25-0.95-0.35
			c-0.38-0.09-0.74-0.14-1.09-0.14c-0.85,0-1.45,0.17-1.79,0.52c-0.34,0.35-0.5,0.91-0.5,1.68V71.59z"/>
		<path class="st1" d="M263.01,81.02c-0.98,0-1.77-0.22-2.38-0.65s-0.91-1.16-0.91-2.16v-9.97c0.07-0.03,0.18-0.06,0.33-0.09
			c0.15-0.04,0.3-0.05,0.47-0.05c0.59,0,0.88,0.25,0.88,0.76v2.42h3.44c0.04,0.07,0.08,0.17,0.13,0.28
			c0.04,0.12,0.06,0.25,0.06,0.39c0,0.48-0.21,0.71-0.63,0.71h-3v5.46c0,0.56,0.16,0.96,0.47,1.19c0.31,0.23,0.76,0.35,1.33,0.35
			c0.24,0,0.5-0.04,0.8-0.13s0.54-0.18,0.74-0.29c0.08,0.08,0.16,0.19,0.23,0.32c0.07,0.13,0.1,0.27,0.1,0.44
			c0,0.31-0.18,0.56-0.55,0.76C264.15,80.92,263.65,81.02,263.01,81.02z"/>
		<path class="st1" d="M273.51,73.52c-0.2,0.66-0.4,1.32-0.6,2c-0.2,0.67-0.41,1.32-0.62,1.93s-0.41,1.2-0.61,1.74
			s-0.38,1.03-0.55,1.45c-0.11,0.07-0.24,0.13-0.38,0.17s-0.33,0.06-0.57,0.06c-0.22,0-0.43-0.04-0.62-0.12
			c-0.19-0.08-0.32-0.2-0.39-0.37c-0.17-0.35-0.37-0.9-0.6-1.64c-0.23-0.74-0.47-1.56-0.71-2.45s-0.48-1.79-0.69-2.69
			c-0.22-0.9-0.4-1.69-0.54-2.36c0.1-0.1,0.22-0.19,0.37-0.27c0.15-0.08,0.33-0.13,0.54-0.13c0.27,0,0.46,0.07,0.59,0.22
			c0.13,0.15,0.22,0.38,0.29,0.7c0.13,0.59,0.27,1.26,0.44,2c0.17,0.75,0.34,1.48,0.5,2.2c0.17,0.71,0.33,1.36,0.47,1.95
			c0.15,0.59,0.25,1.02,0.33,1.3h0.08c0.08-0.25,0.21-0.63,0.37-1.13c0.16-0.5,0.35-1.08,0.56-1.73c0.21-0.65,0.44-1.35,0.69-2.11
			s0.5-1.51,0.76-2.27c0.25-0.14,0.55-0.21,0.9-0.21c0.52,0,0.84,0.18,0.97,0.55c0.25,0.73,0.49,1.45,0.72,2.17
			c0.23,0.72,0.44,1.39,0.64,2c0.2,0.62,0.36,1.17,0.5,1.65c0.14,0.48,0.25,0.85,0.34,1.1h0.1c0.32-1.26,0.67-2.6,1.05-4.01
			c0.38-1.41,0.69-2.81,0.92-4.2c0.2-0.13,0.43-0.19,0.71-0.19c0.24,0,0.43,0.06,0.57,0.17c0.14,0.11,0.21,0.29,0.21,0.52
			c0,0.15-0.05,0.45-0.14,0.89c-0.09,0.44-0.21,0.95-0.37,1.53s-0.33,1.2-0.51,1.87c-0.19,0.67-0.38,1.31-0.58,1.93
			s-0.38,1.19-0.56,1.7s-0.33,0.9-0.45,1.17c-0.07,0.06-0.19,0.11-0.35,0.16c-0.16,0.05-0.35,0.07-0.56,0.07
			c-0.27,0-0.49-0.03-0.66-0.09c-0.17-0.06-0.29-0.16-0.35-0.3c-0.15-0.38-0.32-0.83-0.49-1.34c-0.18-0.52-0.36-1.08-0.56-1.69
			c-0.2-0.61-0.4-1.25-0.6-1.92C273.9,74.84,273.7,74.18,273.51,73.52z"/>
		<path class="st1" d="M285.94,70.77c1.22,0,2.18,0.27,2.9,0.82s1.07,1.41,1.07,2.58v4.98c0,0.31-0.06,0.54-0.18,0.7
			c-0.12,0.16-0.3,0.31-0.54,0.45c-0.34,0.2-0.78,0.37-1.33,0.51c-0.55,0.15-1.19,0.22-1.9,0.22c-1.32,0-2.33-0.26-3.06-0.78
			c-0.72-0.52-1.08-1.27-1.08-2.25c0-0.92,0.3-1.62,0.9-2.09s1.45-0.76,2.54-0.87l2.98-0.29v-0.59c0-0.7-0.21-1.21-0.63-1.53
			c-0.42-0.32-0.99-0.48-1.7-0.48c-0.59,0-1.14,0.08-1.66,0.25c-0.52,0.17-0.98,0.36-1.39,0.57c-0.11-0.1-0.21-0.21-0.3-0.34
			c-0.09-0.13-0.14-0.27-0.14-0.42c0-0.2,0.05-0.36,0.15-0.48c0.1-0.13,0.25-0.25,0.46-0.36c0.38-0.2,0.81-0.35,1.3-0.45
			C284.83,70.82,285.36,70.77,285.94,70.77z M285.96,79.65c0.59,0,1.07-0.06,1.46-0.18s0.66-0.23,0.83-0.35v-3.04l-2.6,0.27
			c-0.73,0.07-1.27,0.23-1.62,0.49c-0.35,0.26-0.52,0.64-0.52,1.14c0,0.53,0.2,0.94,0.61,1.23S285.13,79.65,285.96,79.65z"/>
		<path class="st1" d="M294.65,80.7c-0.07,0.03-0.17,0.06-0.31,0.09c-0.14,0.03-0.29,0.05-0.46,0.05c-0.6,0-0.9-0.25-0.9-0.76v-7.12
			c0-0.32,0.06-0.58,0.18-0.77c0.12-0.19,0.32-0.38,0.6-0.56c0.36-0.24,0.86-0.44,1.48-0.62c0.62-0.17,1.33-0.26,2.11-0.26
			c1.12,0,1.68,0.28,1.68,0.84c0,0.14-0.02,0.27-0.06,0.39s-0.1,0.22-0.17,0.3c-0.14-0.03-0.32-0.06-0.55-0.08
			c-0.22-0.03-0.45-0.04-0.67-0.04c-0.64,0-1.21,0.07-1.7,0.2c-0.49,0.13-0.9,0.29-1.22,0.47V80.7z"/>
		<path class="st1" d="M301.98,76.88c0.38,1.83,1.58,2.75,3.61,2.75c0.59,0,1.12-0.1,1.6-0.29c0.48-0.2,0.85-0.41,1.13-0.63
			c0.34,0.2,0.5,0.46,0.5,0.8c0,0.2-0.09,0.39-0.26,0.57s-0.41,0.34-0.71,0.48c-0.3,0.14-0.65,0.25-1.05,0.34s-0.83,0.13-1.29,0.13
			c-1.62,0-2.91-0.44-3.85-1.32c-0.94-0.88-1.42-2.17-1.42-3.86c0-0.8,0.12-1.51,0.35-2.13c0.23-0.62,0.55-1.15,0.97-1.58
			s0.91-0.77,1.48-1c0.57-0.23,1.2-0.35,1.87-0.35c0.63,0,1.21,0.1,1.74,0.31c0.53,0.21,0.99,0.51,1.38,0.89
			c0.38,0.39,0.69,0.84,0.9,1.37c0.22,0.52,0.33,1.1,0.33,1.73c0,0.31-0.07,0.53-0.21,0.66c-0.14,0.13-0.34,0.21-0.59,0.24
			L301.98,76.88z M304.88,72.13c-0.85,0-1.56,0.3-2.12,0.89c-0.56,0.6-0.85,1.45-0.88,2.55l5.78-0.8c-0.07-0.77-0.34-1.4-0.81-1.9
			C306.37,72.38,305.72,72.13,304.88,72.13z"/>
	</g>
	<polygon class="st2" points="325.63,57.71 357.5,57.71 357.5,28.64 395.32,28.64 395.32,10.97 325.63,10.97 	"/>
	<polygon class="st2" points="325.63,63.82 363.78,63.82 363.78,34.34 395.32,34.34 395.32,80.99 325.63,80.99 	"/>
</g>
</svg>
